<svg width="157" height="54" viewBox="0 0 157 54" fill="none" xmlns="http://www.w3.org/2000/svg">
<path d="M41.5197 28.7422C36.5609 35.0499 26.4256 35.199 18.8817 29.0752C18.0405 28.3924 17.267 27.6603 16.5635 26.8899C16.0607 26.3392 13.6325 22.6441 15.1522 20.6301C16.1127 19.3572 18.0578 22.1225 20.281 23.9065C21.5756 24.9452 26.0873 27.2568 27.8939 24.9418C28.8448 22.8408 26.2513 20.3854 25.6559 19.6895C23.5357 17.2115 20.3591 14.9071 17.6949 13.0284C17.0613 12.4849 16.0437 11.7427 15.6479 11.1887C15.45 10.9117 14.6901 9.70982 14.9717 9.07558C15.132 8.7145 15.6798 8.33135 16.6033 8.46777C17.3022 8.57101 18.4017 9.14564 18.6527 9.26026C19.667 9.72313 20.664 10.2258 21.6379 10.7722C23.1705 11.6331 24.647 12.6032 26.0198 13.7128C27.3911 14.822 28.6596 16.0741 29.7316 17.4927C28.7028 16.0415 27.4675 14.7445 26.1221 13.5863C24.775 12.4275 23.3169 11.4041 21.798 10.4882C20.2781 9.57299 18.6961 8.76459 17.0748 8.04788C16.4103 7.7543 14.9547 6.65572 15.642 5.56983C16.3292 4.48391 19.1254 4.95764 19.938 5.28695C21.563 5.94611 23.1537 6.69785 24.687 7.55829C26.2195 8.41904 27.6961 9.38905 29.0689 10.4988C30.4402 11.6081 31.7087 12.8601 32.7807 14.2787C31.7518 12.8274 30.5166 11.5304 29.1711 10.3723C27.8241 9.21354 26.366 8.18994 24.8471 7.27418C23.6042 6.52576 22.3198 5.84876 21.0064 5.23503C20.8869 5.17923 19.9701 4.78542 19.5058 4.38185C18.8319 3.79603 18.611 3.1034 18.9965 2.67492C20.4401 1.3217 23.0524 1.93867 24.3271 2.52589C25.3344 2.98593 26.3246 3.48497 27.292 4.02765C28.8244 4.88846 30.3011 5.85854 31.6739 6.96817C33.045 8.0774 34.3136 9.32947 35.3856 10.7481C34.3568 9.29681 33.1215 7.9999 31.776 6.84174C30.429 5.68295 28.9709 4.65937 27.452 3.74367C26.8854 3.40252 26.3102 3.07643 25.7276 2.76439C25.0766 2.41583 24.7272 1.72903 25.2231 1.74213C29.1272 1.84519 33.2728 3.33828 36.8392 6.23331C44.383 12.3571 46.4785 22.4346 41.5197 28.7422Z" fill="#27AAE1"/>
<path d="M16.2263 16.8716C22.8616 12.4312 32.5455 15.4741 37.8563 23.6681C38.4484 24.5818 38.9612 25.521 39.3958 26.4748C39.7064 27.1564 40.8911 31.4334 38.833 32.8712C37.5323 33.7799 36.5239 30.539 34.9526 28.1439C34.0376 26.7493 30.4504 23.1333 28.0279 24.7672C26.4843 26.4664 28.2035 29.6164 28.5579 30.4654C29.8201 33.488 32.1398 36.6776 34.1017 39.3014C34.5389 40.0174 35.2808 41.0429 35.4886 41.6941C35.5924 42.0197 35.9494 43.4015 35.4886 43.9162C35.2262 44.2092 34.5888 44.4014 33.752 43.9815C33.1187 43.6637 32.248 42.7717 32.0441 42.5839C31.2204 41.825 30.4253 41.0337 29.6654 40.208C28.4699 38.9078 27.3609 37.5213 26.393 36.0347C25.4266 34.549 24.6012 32.9597 24.0134 31.2738C24.5502 32.9772 25.3303 34.5987 26.2574 36.1229C27.1857 37.6481 28.2609 39.0796 29.4267 40.4278C30.5937 41.7758 31.8521 43.0417 33.1758 44.2327C33.7185 44.7206 34.7683 46.2227 33.7843 47.0395C32.8003 47.8562 30.2854 46.5272 29.6127 45.9586C28.268 44.8211 26.9841 43.6064 25.7877 42.3064C24.5922 41.0063 23.4832 39.6198 22.5153 38.1331C21.5489 36.6474 20.7235 35.0581 20.1357 33.3722C20.6726 35.0757 21.4526 36.6972 22.3797 38.2213C23.308 39.7465 24.3832 41.1781 25.549 42.5263C26.5032 43.6286 27.5186 44.6759 28.581 45.6723C28.6776 45.7629 29.4296 46.4255 29.7483 46.9552C30.211 47.724 30.2103 48.4521 29.7133 48.7385C27.9287 49.5718 25.6321 48.1642 24.5986 47.2052C23.7807 46.4513 22.9908 45.6655 22.236 44.8455C21.0406 43.5454 19.9316 42.1589 18.9637 40.6722C17.9973 39.1865 17.1719 37.5972 16.5841 35.9113C17.1209 37.6147 17.901 39.2362 18.828 40.7604C19.7565 42.2856 20.8316 43.7172 21.9975 45.0653C22.4324 45.5677 22.8802 46.0586 23.3394 46.5384C23.8523 47.0744 23.9756 47.8374 23.5079 47.6691C19.8266 46.3443 16.3386 43.6218 13.8279 39.7481C8.51734 31.554 9.59122 21.3119 16.2263 16.8716Z" fill="#FFC700"/>
<path d="M27.9899 24.8174C27.9832 24.8331 27.977 24.8489 27.9699 24.8646C26.1632 27.1796 21.6515 24.868 20.357 23.8292C18.1338 22.0452 16.1886 19.28 15.2282 20.5528C13.7085 22.5669 16.1367 26.2619 16.6395 26.8126C17.343 27.583 18.1165 28.3151 18.9577 28.9979C21.0756 30.7172 23.3978 31.9419 25.7523 32.6749C25.8787 32.7135 25.3807 31.7797 25.8787 32.7135C27.7963 33.2958 29.7332 33.5523 31.5968 33.4841C30.6348 32.0064 29.7601 30.4822 29.1405 28.9982C28.8762 28.3653 27.8538 26.4536 27.9899 24.8174Z" fill="#27AAE1"/>
<path d="M84.4326 23V3H88.7809V18.4286L97.6225 3H104V23H99.6517V7.57143L90.8102 23H84.4326Z" fill="#1E40AF"/>
<path d="M54 23V3H61.1892L66.9 18.6571L72.6108 3H79.8V23H75.4517V7.94286L69.6829 23H64.1171L58.3483 7.91429V23H54Z" fill="#1E40AF"/>
<path d="M152.666 42.5081C151.771 42.5649 145.79 42.9338 141.745 42.9338C139.867 42.9338 139.029 41.9689 139.029 40.1527V29.5676H143.363V38.8189H152.666V29.5676H157V49.4324H152.666V42.5081Z" fill="#1E40AF"/>
<path d="M120.212 45.3176C123.274 45.3176 125.528 45.7432 125.528 45.7432V43.1041L117.351 29.5676H122.379L127.695 38.677L132.231 29.5676H136.853L129.862 43.3027V46.6514C129.862 48.4676 129.024 49.4324 127.146 49.4324H120.212V45.3176Z" fill="#1E40AF"/>
<path d="M100.385 49.4324V29.5676H110.006C114.947 29.5676 117.634 32.5757 117.634 36.6622C117.634 40.7486 114.947 43.8135 110.006 43.8135H104.719V49.4324H100.385ZM104.719 39.8405H110.006C112.433 39.8405 113.271 39.0743 113.271 36.6905C113.271 34.3068 112.433 33.5405 110.006 33.5405H104.719V39.8405Z" fill="#1E40AF"/>
<path d="M86.2191 50C80.1518 50 75.818 46.027 75.818 39.5C75.818 32.973 80.1518 29 86.2191 29C92.2864 29 96.6202 32.973 96.6202 39.5C96.6202 46.027 92.2864 50 86.2191 50ZM80.1518 39.5C80.1518 44.0405 82.7521 46.027 86.2191 46.027C89.6861 46.027 92.2864 44.0405 92.2864 39.5C92.2864 34.9595 89.6861 32.973 86.2191 32.973C82.7521 32.973 80.1518 34.9595 80.1518 39.5Z" fill="#1E40AF"/>
<path d="M54 49.4324V29.5676H72.0575V49.4324H67.7237V33.5405H58.3338V49.4324H54Z" fill="#1E40AF"/>
</svg>
